<svg width="1121" height="1120" viewBox="0 0 1121 1120" fill="none" xmlns="http://www.w3.org/2000/svg">
<path d="M154.938 1.04749C146.238 2.34749 123.738 7.64749 115.238 10.5475C86.8378 19.9475 55.6378 42.9474 36.6378 68.3474C18.9378 91.9474 12.0378 106.747 5.53782 134.947C3.63782 142.947 1.63782 153.847 1.13782 159.147C-0.362177 172.447 -0.362177 948.747 1.03782 961.347C3.43782 982.247 10.9378 1008.55 18.9378 1024.35C29.4378 1044.95 48.3378 1068.05 65.5378 1081.45C88.5378 1099.35 104.438 1107.25 130.938 1113.95C156.738 1120.45 121.838 1119.95 560.538 1119.95C997.738 1119.95 963.638 1120.45 989.538 1114.05C1012.54 1108.35 1026.74 1101.95 1046.44 1088.15C1069.84 1071.75 1089.24 1049.15 1102.04 1023.45C1111.24 1004.95 1117.84 981.247 1120.04 958.747C1120.74 951.847 1121.04 817.547 1120.74 552.947C1120.44 181.247 1120.34 156.947 1118.74 148.947C1111.44 113.947 1104.64 96.8474 1088.34 73.7474C1077.94 58.8474 1065.94 46.4475 1051.94 36.0475C1030.24 19.7475 1014.84 12.3474 991.038 6.34741C963.138 -0.552588 999.038 -0.0525146 559.038 0.0474854C339.838 0.147485 158.038 0.547485 154.938 1.04749ZM890.338 143.947C916.338 146.947 944.038 165.247 958.038 188.747C963.738 198.447 968.738 211.247 970.038 219.447C970.738 224.347 971.038 326.947 970.838 561.947L970.538 897.447L967.638 904.947C957.438 931.847 941.838 949.947 919.538 960.947C907.238 966.947 901.838 968.747 892.138 970.047C887.138 970.647 768.438 970.947 552.038 970.747L219.538 970.447L209.138 966.747C178.738 955.847 158.138 935.147 147.338 904.447L144.538 896.447V557.447V218.447L146.838 211.447C152.538 194.547 160.338 181.947 172.238 170.347C181.338 161.447 188.638 156.347 199.438 151.447C209.538 146.947 216.038 144.947 223.838 143.947C234.138 142.747 879.838 142.747 890.338 143.947Z" fill="url(#paint0_linear)"/>
<path d="M636.538 267.547C607.338 270.347 582.838 282.547 557.838 306.847L551.038 313.347L545.838 311.547C542.938 310.547 535.138 307.147 528.538 303.847C511.538 295.447 503.938 293.547 486.538 293.547C469.838 293.447 462.238 295.247 446.538 302.947C433.838 309.147 422.738 318.047 411.638 330.547C395.438 348.947 386.338 364.947 379.638 387.047C375.238 401.847 373.638 414.847 374.338 430.847C375.638 461.647 386.338 482.747 418.938 518.847C429.338 530.447 438.938 540.147 448.938 549.247L457.338 556.947H448.338H439.438L429.438 542.147C420.638 529.047 419.138 527.347 415.538 526.047C410.438 524.347 401.338 525.947 397.238 529.447C395.738 530.647 391.538 536.847 388.038 543.047C384.438 549.247 381.438 553.747 381.338 552.947C381.138 552.147 375.638 508.047 369.038 454.947C352.438 322.347 350.238 305.447 348.838 302.447C346.838 297.947 341.738 295.647 334.338 295.847C327.238 295.947 322.838 297.747 320.438 301.347C318.538 304.347 317.638 313.747 315.038 357.447C313.938 376.147 311.038 424.747 308.538 465.447C306.038 506.147 303.738 545.247 303.438 552.447C303.138 559.547 302.638 566.147 302.238 566.947C301.938 567.747 301.138 561.647 300.438 553.347C298.838 532.947 297.438 530.547 286.238 527.947C275.138 525.347 272.738 527.247 259.538 548.847C255.138 556.047 251.138 561.947 250.738 561.947C250.338 561.947 244.738 557.347 238.238 551.647C219.938 535.547 219.838 535.447 212.138 535.447C205.638 535.447 205.238 535.647 190.538 544.147C182.338 549.047 174.638 552.947 173.438 552.947C172.238 552.947 170.138 553.847 168.638 555.047C166.038 557.047 166.038 557.247 166.038 569.447C166.038 581.647 166.038 581.847 168.638 583.847C173.938 588.047 183.838 585.847 198.338 577.347C204.338 573.847 209.538 570.947 210.038 570.947C210.538 570.947 218.738 577.847 228.438 586.347C247.638 603.147 248.838 603.847 258.138 601.847C262.338 600.947 264.438 599.847 267.338 596.747L271.038 592.847V596.647C271.038 600.447 271.838 611.547 274.538 648.447C275.338 659.447 276.938 681.447 278.038 697.447C279.138 713.347 281.438 745.547 283.138 768.947C284.838 792.347 286.238 818.747 286.338 827.647L286.538 843.847L289.438 846.847C293.338 850.947 298.038 852.347 305.638 851.647C312.738 851.147 317.138 848.647 318.838 844.247C319.438 842.647 320.138 831.947 320.438 820.447C320.638 808.847 322.038 781.247 323.438 758.947C325.838 720.947 328.738 673.647 331.038 634.447C331.638 625.047 332.938 602.547 334.038 584.447C337.438 527.747 337.938 519.747 338.538 507.447C338.838 500.847 339.438 493.847 339.738 491.947C340.138 489.747 342.938 509.647 347.538 545.947C351.538 577.547 355.038 605.347 355.438 607.747C357.038 616.447 364.038 620.747 374.738 619.447C382.238 618.547 384.538 615.847 397.038 593.447C402.838 583.147 408.038 573.947 408.638 573.147C409.538 571.947 410.538 572.847 414.138 578.047C417.038 582.247 420.138 585.347 423.038 586.947L427.538 589.447L462.838 589.947L498.038 590.447L510.338 600.147C582.038 656.747 583.538 657.947 587.738 657.947C591.738 657.947 595.238 653.047 600.938 639.347C606.138 626.947 618.838 600.947 623.038 594.147L625.038 590.947H639.038C657.738 590.947 660.738 590.147 670.538 582.247L678.538 575.847L680.238 577.947C681.238 579.147 686.638 587.647 692.338 596.647C697.938 605.747 704.138 615.047 706.138 617.347L709.838 621.447H718.338C726.438 621.447 727.038 621.247 729.938 618.547C731.538 617.047 734.338 613.047 736.038 609.847C737.738 606.647 739.238 603.947 739.438 603.947C739.638 603.947 740.238 610.847 740.938 619.147C741.638 627.547 743.238 647.447 744.538 663.447C745.838 679.347 748.138 707.247 749.538 725.447C756.638 816.547 758.938 841.947 760.238 844.547C763.038 850.347 769.638 852.847 778.538 851.547C784.238 850.647 789.538 846.247 790.438 841.647C791.138 838.147 792.438 818.647 794.038 789.447C795.038 770.547 796.238 750.247 798.038 718.947C798.538 709.847 799.438 694.147 800.038 683.947C802.938 632.847 805.138 592.747 806.038 577.447C806.638 568.047 807.938 544.747 809.138 525.447C810.238 506.247 811.238 490.447 811.338 490.347C811.438 490.147 813.738 507.047 816.438 527.747C825.138 595.747 826.838 607.747 828.538 610.947C830.438 614.647 833.738 616.647 840.238 617.847C847.338 619.147 852.038 617.847 855.438 613.847C856.838 612.247 862.538 601.847 868.038 590.847L878.138 570.947L884.038 578.347C887.338 582.547 891.338 586.547 892.938 587.447C895.438 588.647 900.538 588.947 921.838 588.947C938.038 588.947 948.938 588.547 950.838 587.847C955.138 586.347 956.338 581.947 955.938 569.647C955.338 555.747 956.838 556.547 929.738 555.947L907.538 555.447L898.538 544.247C893.638 538.047 888.138 531.547 886.438 529.847C882.938 526.447 877.938 525.247 870.638 526.347C864.838 527.247 861.538 530.447 856.238 540.547L852.238 548.347L851.638 544.947C851.038 541.547 847.438 513.547 839.038 448.447C836.838 430.847 834.338 411.747 833.538 405.947C832.738 400.147 830.038 379.647 827.538 360.447C821.038 309.847 820.538 307.047 817.338 303.747C810.638 296.747 794.438 298.247 790.638 306.347C788.838 310.247 788.438 314.747 785.038 374.447C783.938 394.247 782.138 425.747 781.038 444.447C779.938 463.147 778.638 486.947 778.038 497.447C777.438 507.847 776.538 523.147 776.038 531.447C775.538 539.647 774.538 556.647 773.938 569.147C773.238 581.747 772.438 591.947 772.038 591.947C771.638 591.947 770.838 584.447 770.138 575.147C768.238 549.147 767.038 539.747 765.238 536.747C763.038 533.047 758.438 530.947 750.838 530.347C741.338 529.547 739.938 530.747 730.338 549.047C725.838 557.547 721.138 566.547 719.938 569.147C718.638 571.847 717.438 573.947 717.138 573.947C716.738 573.947 712.238 567.147 707.038 558.747C695.938 541.047 692.838 537.547 687.438 536.647C676.838 534.847 675.438 535.447 659.438 548.947C654.238 553.347 649.738 556.947 649.438 556.947C648.138 556.947 668.938 534.247 693.838 508.747C733.038 468.447 742.538 456.447 750.438 436.947C755.938 423.447 757.438 414.047 757.538 394.447C757.538 370.547 754.138 356.147 743.638 334.447C729.838 306.347 703.738 282.447 676.538 273.147C664.738 269.147 646.738 266.647 636.538 267.547Z" fill="url(#paint1_linear)"/>
<defs>
<linearGradient id="paint0_linear" x1="560.427" y1="1119.96" x2="560.427" y2="0" gradientUnits="userSpaceOnUse">
<stop stop-color="#ED213A"/>
<stop offset="1" stop-color="#973D34" stop-opacity="0.91"/>
</linearGradient>
<linearGradient id="paint1_linear" x1="561.024" y1="851.884" x2="561.024" y2="267.364" gradientUnits="userSpaceOnUse">
<stop stop-color="#ED213A"/>
<stop offset="1" stop-color="#973D34" stop-opacity="0.91"/>
</linearGradient>
</defs>
</svg>
